<svg
  xmlns="http://www.w3.org/2000/svg"
  viewBox="0 0 512 512"
  role="img"
  aria-labelledby="title desc"
>
  <title id="title">Questify logo</title>
  <desc id="desc">A golden shield with a sword and parchment scroll on a dark blue background.</desc>
  <rect width="512" height="512" rx="104" fill="#13233F" />
  <g transform="translate(256 116)">
    <path
      d="M0 0C-58 32 -118 54 -176 70V176C-176 276 -100 356 0 384C100 356 176 276 176 176V70C118 54 58 32 0 0Z"
      fill="#F5B23C"
      stroke="#C77A21"
      stroke-width="18"
      stroke-linejoin="round"
    />
  </g>
  <g transform="translate(256 64)">
    <path
      d="M0 -80L-20 56H20L0 -80Z"
      fill="#D0D6E4"
      stroke="#8A94AA"
      stroke-width="16"
      stroke-linejoin="round"
    />
    <rect x="-16" y="56" width="32" height="180" rx="12" fill="#E5E8F0" stroke="#8A94AA" stroke-width="16" />
    <rect x="-26" y="166" width="52" height="56" rx="16" fill="#B95C1B" stroke="#7A3610" stroke-width="16" />
  </g>
  <g transform="translate(294 282)">
    <path
      d="M-116 -44H60C88 -44 108 -24 108 4V124C108 152 88 172 60 172H-96C-120 172 -140 152 -140 128V-16C-140 -36 -124 -44 -104 -44"
      fill="#F7E2C3"
      stroke="#BE945A"
      stroke-width="16"
      stroke-linejoin="round"
    />
    <path
      d="M-80 -12H76"
      stroke="#D3AE7E"
      stroke-width="14"
      stroke-linecap="round"
    />
    <path
      d="M-80 28H60"
      stroke="#D3AE7E"
      stroke-width="14"
      stroke-linecap="round"
    />
    <path
      d="M-80 68H44"
      stroke="#D3AE7E"
      stroke-width="14"
      stroke-linecap="round"
    />
    <path
      d="M-80 108H20"
      stroke="#D3AE7E"
      stroke-width="14"
      stroke-linecap="round"
    />
    <path
      d="M-140 36C-140 36 -172 64 -172 104C-172 132 -148 156 -120 156H60"
      fill="none"
      stroke="#BE945A"
      stroke-width="16"
      stroke-linecap="round"
      stroke-linejoin="round"
    />
  </g>
</svg>
